<?xml version="1.0" encoding="utf-8"?>
<!DOCTYPE svg PUBLIC "-//W3C//DTD SVG 1.0//EN" "http://www.w3.org/TR/2001/REC-SVG-20010904/DTD/svg10.dtd">
<svg version="1.0" xmlns="http://www.w3.org/2000/svg" width="1024px" height="1024px" viewBox="0 0 1024 1024" preserveAspectRatio="xMidYMid meet">
 <g fill="#fdffff">
  <path d="M0 512 l0 -512 512 0 512 0 0 512 0 512 -512 0 -512 0 0 -512z m528.75 314.75 c16.90 -1.25 27.90 -2.75 42.75 -5.85 41.70 -8.55 77.80 -23.45 113.10 -46.65 8.10 -5.35 13.35 -9.15 24.15 -17.50 9.15 -7.10 28.75 -26 38.30 -37 33.10 -38.05 54.90 -79.40 66.90 -127 7.40 -29.40 10 -47.80 10.40 -73.75 0.50 -31.60 -2.75 -55.05 -12.10 -87.75 -7.55 -26.25 -16.95 -47.75 -31.40 -72 -20.90 -34.95 -52.15 -69.25 -84.60 -92.80 -47.90 -34.75 -100.95 -54.65 -161.50 -60.55 -8.80 -0.85 -42.60 -0.85 -50.25 0 -28 3.15 -47.15 7 -67.50 13.70 -35.60 11.65 -64.95 26.75 -94.60 48.75 -33.60 24.95 -63.90 59.15 -85.05 96.15 -10.10 17.65 -20.60 41.25 -25.50 57.50 -7.05 23.20 -10.70 40.30 -13.10 61.50 -3.25 28.60 -2.45 55 2.55 83.40 10.65 60.50 36.20 112.90 77.25 158.35 12.50 13.85 32.20 31.40 46.75 41.65 12.10 8.50 15.50 10.80 22.45 14.95 16.80 10.10 29.85 16.50 48.40 23.85 17.25 6.80 29 10.45 45.60 14.05 31.10 6.80 59.65 9.10 87 7z"/>
  <path d="M559.50 787.50 c-33.20 -2.10 -63.20 -10.25 -90.40 -24.55 -32.65 -17.15 -57.70 -39.10 -79 -69.15 -10.05 -14.20 -19.95 -33.20 -25.30 -48.70 -2.05 -5.85 -5.90 -20.45 -7 -26.35 -1.60 -8.85 -3.25 -24.55 -3.35 -32.70 l-0.05 -3.30 -0.95 3 c-4.45 13.95 -5.80 35.45 -3.40 55 2.45 20.50 8.60 39.45 19.10 58.95 5.45 10.20 14.35 23.75 19.45 29.70 0.95 1.10 1.40 2.20 1.40 3.35 0 1.70 -0.10 1.75 -1.80 1.75 -1.85 0 -3.45 -0.75 -11.70 -5.70 -22.45 -13.30 -43 -37.30 -54.50 -63.60 -4.80 -11 -7.75 -20.30 -10.20 -32.25 -3.15 -15.50 -3.60 -37.05 -1.10 -53.45 0.35 -2.35 0.65 -4.30 0.60 -4.35 -0.10 -0.15 -5.55 6.55 -7.30 9.10 -8.75 12.40 -15.60 29.55 -19.05 47.50 -1.30 6.90 -1.55 9.55 -1.80 19.40 l-0.30 11.40 -1.75 -0.15 c-1.90 -0.15 -1.40 0.75 -5.35 -9.65 -2 -5.30 -4.55 -13.95 -5.70 -19.50 -3.65 -17.80 -3.35 -42.30 0.75 -60.70 3.85 -17.35 12.55 -36.30 22.90 -50 5.10 -6.75 11.25 -13.60 15.55 -17.15 2.05 -1.70 3.65 -3.20 3.55 -3.30 -0.40 -0.35 -9.45 2.95 -13.40 4.95 -5.75 2.90 -9.05 5.05 -13.15 8.65 -8.35 7.25 -14.85 15.75 -20.40 26.65 l-2.60 5.15 -1.90 0 -1.90 0 0.30 -5.85 c0.70 -13.05 2.35 -21.85 6.35 -33.65 4.60 -13.55 13.20 -29.10 22.70 -41 4.75 -5.95 18.05 -19.10 23.45 -23.25 2.50 -1.90 4.70 -3.60 4.95 -3.80 0.60 -0.55 -2.45 -0.10 -7.55 1.10 -5.45 1.30 -12.05 4.10 -16.45 7.05 -2.35 1.60 -4.10 2.40 -5.15 2.40 -1.45 0 -1.55 -0.10 -1.55 -1.90 0 -5 14.75 -22.80 25 -30.20 6.15 -4.40 12.50 -8 16.10 -9.10 0.75 -0.20 0.80 -0.80 0.55 -4.65 -0.30 -4.90 0.40 -12.45 1.90 -19.65 4.45 -21.55 17.55 -44.45 35.65 -62.10 4.65 -4.55 5.75 -5.40 7.05 -5.40 0.90 0 1.90 0.40 2.35 0.90 2.55 2.95 10.45 18.75 16.05 31.90 5 11.85 10.90 24.70 11.35 24.70 0.15 0 2.65 -2.55 5.55 -5.65 6.55 -6.95 12.05 -11.65 19.50 -16.65 9.40 -6.30 24.90 -13.20 29.60 -13.20 l2 0 -0.35 6.40 c-0.40 7.50 -0.90 11.30 -4.35 33.85 -3.80 25.30 -3.65 31.15 1.15 40.45 3.10 5.90 8.10 10.75 14.65 14.15 6.50 3.30 14.55 6.60 24.45 9.95 8.45 2.85 11 4.30 12.10 7 1.10 2.60 0.85 8 -0.45 11.20 -3.40 8.20 -15.30 21.40 -22.60 25.05 -1.70 0.80 -4.60 1.75 -6.50 2.05 -5.30 0.80 -14.55 0.20 -20.25 -1.35 -19.45 -5.25 -23.70 -6 -31.75 -5.60 -6.90 0.30 -12.15 1.65 -18 4.60 -5.65 2.85 -10.85 7.15 -14.50 12.05 -2.85 3.75 -5.60 8.20 -5.05 8.20 0.15 0 2.15 -1.20 4.40 -2.65 5.10 -3.25 6.45 -3.85 8.65 -3.85 1.50 0 1.75 0.15 1.75 1.15 0 1.25 3.30 8 4.05 8.25 0.25 0.10 0.45 0.55 0.45 1.05 0 0.45 0.40 1.30 0.90 1.85 0.45 0.50 1.15 1.55 1.55 2.30 0.40 0.75 1.10 1.85 1.65 2.35 0.50 0.55 0.90 1.15 0.90 1.35 0 0.85 9.90 12 14 15.75 5.10 4.65 11.90 9.95 12.85 9.95 0.35 0 1.80 2.30 3.20 5.15 11.75 23.45 32.55 46.30 55.45 60.90 13.30 8.50 22.55 13 39 19.05 20.70 7.55 37.95 10.60 60.25 10.60 12.60 -0.05 20.35 -0.70 28.75 -2.45 1.95 -0.40 4.55 -0.75 5.80 -0.75 2.15 0 2.20 0.05 2.20 1.65 0 1.65 -0.10 1.70 -6.35 4.75 -15.80 7.60 -30.95 11.80 -51.40 14.20 -8.60 1 -37.30 0.85 -45.75 -0.25 -13 -1.70 -19.35 -3.05 -31.75 -6.90 -22.10 -6.90 -41.25 -17.65 -59.55 -33.55 -11.20 -9.70 -23.20 -23.85 -30.90 -36.55 -3.65 -6.10 -3.65 -6.25 -1.45 4.55 4.50 22.70 18.15 49.85 36.35 72.35 18.85 23.35 39.45 42 63.30 57.25 10.40 6.70 14.35 8.95 24.85 14.20 32.05 16 66.60 26.10 102.15 29.85 9.10 1 33.35 0.85 41.60 -0.20 3.75 -0.45 7.55 -0.85 8.40 -0.85 1.50 0 1.55 0.10 1.40 1.80 -0.15 1.80 -0.20 1.85 -7.75 5.70 -9.25 4.70 -12.95 6.30 -23.65 10 -12 4.20 -28.55 8.10 -42 10 -13.25 1.85 -38.40 2.85 -51.50 2z m-135.85 -351.10 c-1.80 -3.40 -5.85 -7.40 -8.85 -8.80 -4.05 -1.95 -6.90 -2.35 -10.90 -1.70 -3.50 0.60 -9.90 3.25 -12.15 5 l-1.20 0.95 3.60 0.35 c5.80 0.50 10.25 2.15 13 4.75 1.35 1.25 1.65 1.30 9 1.60 4.20 0.15 7.90 0.30 8.25 0.35 0.45 0.05 0.15 -0.85 -0.75 -2.50z m-62.40 -30.80 c5.40 -4.95 14.10 -9.15 21.40 -10.35 l1.90 -0.30 -0.30 -3.60 c-1.70 -20.25 -4.20 -30.85 -10.30 -43.20 l-3.05 -6.15 -3.70 5.95 c-4.40 7.20 -5.05 8.50 -7.40 14.50 -5.65 14.35 -6.80 31.60 -2.95 43.70 0.40 1.30 0.85 2.35 1 2.35 0.15 0 1.65 -1.30 3.40 -2.90z m81.75 -19.10 c0.60 -3.70 1.30 -8.10 1.50 -9.75 0.25 -1.65 0.80 -5.45 1.25 -8.45 0.45 -2.95 0.70 -5.50 0.60 -5.65 -0.30 -0.25 -6.75 6.75 -9.40 10.20 -2.35 3 -8.45 13.05 -8.45 13.85 0 0.30 1.70 1.65 3.80 3 2.05 1.35 4.95 3.65 6.35 5.10 l2.60 2.60 0.35 -2.10 c0.15 -1.10 0.80 -5.10 1.40 -8.80z"/>
  <path d="M626.35 739.15 c-0.20 -0.15 -0.35 -1.05 -0.35 -1.95 0 -1.50 0.15 -1.65 2.15 -1.95 5.15 -0.85 24.60 -7.85 31.50 -11.35 15.95 -8.05 27.30 -16.20 39.90 -28.85 11.10 -11.15 16.75 -18.55 23.30 -30.70 7.80 -14.40 11.85 -28.55 12.50 -43.10 0.40 -10.45 -1.65 -21.45 -6 -32.15 -4.35 -10.60 -13.35 -23.95 -23.35 -34.70 -4.10 -4.35 -5 -5.60 -5 -6.85 0 -1.45 0.15 -1.55 1.75 -1.55 1.45 0 2.55 0.70 7 4.55 8.20 7.10 21.50 20.60 27.10 27.60 13.55 16.80 23.50 35.45 26.95 50.30 1.85 7.95 1.80 17.65 -0.10 25.20 l-0.85 3.40 -1.80 -0.15 -1.80 -0.15 -0.80 -3.90 c-1 -4.60 -3 -10.50 -4.95 -14.30 l-1.35 -2.70 -0.30 5.45 c-1.10 19.10 -9.85 39.60 -24.50 57.35 -7.80 9.40 -16 16.70 -27.05 23.95 -14.35 9.40 -27.15 14.15 -43.30 16.15 -6.30 0.75 -30 1.10 -30.65 0.40z"/>
  <path d="M592.50 724.80 c-4.95 -0.60 -7.60 -1.05 -9.60 -1.60 -0.65 -0.20 -0.90 -0.75 -0.90 -1.90 l0 -1.65 3.65 -0.60 c4.50 -0.80 17.45 -4.45 25.25 -7.10 6.80 -2.35 16.80 -6.85 23.30 -10.50 12.25 -6.90 29.35 -19.40 36.05 -26.40 1.50 -1.60 2.30 -2.05 3.60 -2.05 1.60 0 1.65 0.05 1.65 2.05 0 3.95 -8.30 18.10 -15.30 26.15 -3.85 4.40 -10.80 10.45 -15.70 13.60 -7.20 4.60 -14.80 7.60 -23.65 9.25 -7.10 1.30 -20.85 1.65 -28.35 0.75z"/>
  <path d="M544 695.75 c-19.45 -2.55 -34.45 -8.45 -50.30 -19.80 -3.20 -2.30 -7.40 -5.65 -9.25 -7.35 -2.95 -2.75 -3.45 -3.45 -3.45 -4.90 0 -1.50 0.15 -1.70 1.40 -1.70 0.75 0 3.85 1.10 6.85 2.45 9.80 4.40 29.30 9.95 43 12.25 10 1.70 18.45 2.40 32.80 2.65 16 0.30 27.85 -0.45 40.70 -2.50 3.60 -0.55 8.15 -1.10 10.15 -1.20 l3.60 -0.25 0 1.70 c0 1.65 -0.15 1.75 -7.35 5.75 -8.85 4.90 -12.35 6.55 -18.65 8.60 -6.15 2 -12.85 3.45 -20 4.35 -6.90 0.85 -22.80 0.85 -29.50 -0.05z"/>
  <path d="M761.80 614.65 c-0.10 -0.50 -0.35 -1.90 -0.55 -3.15 -0.15 -1.25 -1 -5.75 -1.80 -10 -0.85 -4.25 -2.40 -12.60 -3.50 -18.50 -1.10 -5.90 -3.25 -16.60 -4.75 -23.75 -1.50 -7.15 -3.35 -15.70 -4 -19 -1.55 -7.40 -6.25 -26.20 -8.25 -33.10 -3.50 -12.20 -10.30 -27 -17.10 -37.30 -5.60 -8.55 -11.05 -14.95 -19.85 -23.45 l-8 -7.80 0 -7.40 c0 -8.75 -0.70 -17.15 -1.80 -21.70 -0.40 -1.80 -0.90 -4.10 -1.05 -5.10 -0.25 -1.90 -0.25 -1.90 1.50 -1.90 1.55 0 2.30 0.60 7.85 6.35 l6.10 6.30 -0.30 -4.20 c-1.75 -21.70 -10.75 -38.70 -25.65 -48.45 -12.65 -8.30 -26.60 -9.15 -41.10 -2.45 -2.45 1.15 -4.95 1.95 -6 1.95 -1 0 -4.55 -0.90 -7.80 -2 -10.30 -3.50 -17.15 -4.65 -26.75 -4.65 -7.25 0 -8.85 0.15 -13.10 1.30 -5.70 1.50 -11.95 4.45 -16.15 7.60 -2.80 2.10 -8.25 7.95 -8.25 8.85 0 0.20 1.75 0.40 3.90 0.40 19.10 0 38.45 7.75 51.25 20.55 6.70 6.70 6.70 6.50 -1.05 14.30 -11.30 11.30 -17.85 23.20 -21.15 38.65 -1 4.40 -1.15 6.75 -1.15 14.75 0 13.70 1.50 20.40 7.15 32 8.45 17.30 20.05 30.30 43.05 48.25 4 3.10 8.45 6.55 9.85 7.70 2.35 1.80 2.65 2.25 2.65 3.90 0 1.45 -0.55 2.60 -2.55 5.25 -5.75 7.60 -8.30 16.50 -7.05 24.55 l0.35 2.10 4 -5.05 c9.20 -11.65 16.65 -16.70 27.45 -18.50 l3.95 -0.65 1.90 2.20 c5.85 6.75 10.50 15.45 12.45 23.25 1.55 6.05 3.25 16.85 2.85 17.90 -0.25 0.65 -5.85 2.15 -13.60 3.65 -15.65 2.95 -38.85 2.85 -53.75 -0.25 -6.50 -1.35 -16.30 -4.25 -21.75 -6.35 -5.30 -2.10 -18.25 -8.70 -22.50 -11.50 -22.45 -14.60 -41 -37.20 -51.70 -62.95 -4.30 -10.20 -8.25 -24.80 -9.85 -36.15 -1.20 -8.75 -1.45 -28.50 -0.45 -41.60 1.75 -23.65 1.60 -35.25 -0.80 -50.75 -3.40 -22.30 -11.25 -43.65 -22.70 -62 -12.45 -20 -29.30 -37.55 -47.35 -49.40 -6.10 -4 -14.65 -8.85 -20 -11.35 -3.30 -1.55 -3.40 -1.65 -3.40 -3.40 0.05 -1.85 0.10 -1.90 6.90 -5.95 12 -7.15 23.25 -12.10 36.60 -16.10 22.10 -6.60 39.60 -9.05 64.50 -9.05 15.70 0 27.35 1.15 41.75 4.05 36 7.25 71.55 23.55 102.75 47.10 11.70 8.85 18.10 14.45 29.25 25.60 15.30 15.30 24.30 26.20 35.50 43 7.60 11.45 12.30 19.60 17.75 31 10.30 21.45 17.35 42.90 21.45 65.25 3.35 18 4.30 31.15 3.90 52.25 -0.30 14.45 -1.15 23.50 -3.60 37.75 -3.40 20.15 -10.60 43 -18.80 59.90 l-3.95 8.10 -1.70 0 c-1.20 0 -1.80 -0.25 -2 -0.85z"/>
  <path d="M629.15 498.30 c-8.15 -8.40 -13.10 -16.15 -16.05 -25.05 -2.35 -7.15 -2.85 -10.70 -2.85 -20 0 -10.30 0.95 -14.60 4.95 -23 3.20 -6.65 7.15 -12.05 13.25 -17.85 4.15 -4.05 4.70 -4.40 6.55 -4.40 1.90 0 2 0.10 2 1.50 0 1.05 -0.80 2.55 -2.60 4.95 -5.40 7.10 -8.55 13.50 -10.60 21.80 -2.05 8.15 -2.45 11.85 -2.15 20.25 0.50 14.40 4.35 25.85 13.15 39.35 1.95 3.05 2.70 4.65 2.70 5.90 0 1.65 -0.10 1.75 -1.70 1.75 -1.45 0 -2.25 -0.60 -6.65 -5.20z"/>
  <path d="M653.75 390.40 c-1.90 -1.45 -2.75 -3.80 -2.75 -7.40 0 -3.40 0.80 -5.40 2.80 -6.95 1.90 -1.50 7.60 -1.50 10.05 0 2.40 1.50 3.15 3.30 3.15 7.45 0 6.10 -1.95 8 -8.15 8 -3.05 0 -3.95 -0.20 -5.10 -1.10z"/>
 </g>
 <g fill="#011018">
  <path d="M488.75 828.45 c-26.45 -2 -52.95 -7.10 -76.50 -14.80 -22.15 -7.20 -45.15 -17.75 -66 -30.30 -6.95 -4.15 -10.35 -6.45 -22.45 -14.95 -14.55 -10.25 -34.25 -27.80 -46.75 -41.65 -41.05 -45.45 -66.65 -97.95 -77.25 -158.35 -5.05 -28.85 -5.90 -57.40 -2.55 -86.65 2.45 -21.05 6.10 -38.15 13.10 -61.25 4.90 -16.25 15.40 -39.85 25.50 -57.50 21.15 -37 51.45 -71.20 85.05 -96.15 25.70 -19.05 51.15 -32.95 79.75 -43.55 28.40 -10.50 48.25 -15.05 82.35 -18.90 7.70 -0.85 44.40 -0.85 53.25 0 50.90 4.95 95.15 19.35 137.75 44.75 14.70 8.75 33.70 22.65 45.50 33.30 35.15 31.65 62.25 68.20 79.95 107.95 8.10 18.20 14.40 37.15 19.25 58.10 5.70 24.70 7.55 43.10 7.15 70.75 -0.45 27.50 -2.85 45 -10.40 75 -12 47.60 -33.80 88.95 -66.90 127 -9.55 11 -29.15 29.90 -38.30 37 -16.20 12.55 -27.90 20.40 -43 29.05 -48.10 27.35 -103.85 41.90 -159.75 41.65 -7.30 -0.05 -15.70 -0.30 -18.75 -0.50z m109.75 -43.20 c15.50 -1.50 30.05 -4.25 44.25 -8.35 5.60 -1.60 18.50 -6.30 23.30 -8.45 5.45 -2.45 17.05 -8.50 16.80 -8.75 -0.10 -0.10 -3.05 0.20 -6.65 0.65 -7.95 1.05 -35.75 1.20 -44.70 0.20 -35.75 -3.80 -70.10 -13.85 -102.15 -29.85 -10.50 -5.25 -14.45 -7.50 -24.85 -14.20 -23.85 -15.25 -44.45 -33.90 -63.30 -57.25 -14.60 -18.05 -26.65 -39.75 -32.95 -59.25 -2.35 -7.40 -3.90 -14.40 -5.25 -23.75 -0.60 -4.10 -1.20 -8 -1.35 -8.60 -0.55 -2.35 0.95 -1.05 2.30 2.05 6.10 13.55 22.10 34 36.25 46.20 18.30 15.90 37.45 26.65 59.55 33.55 12.40 3.85 18.80 5.25 31.75 6.90 8.40 1.05 34.25 1.20 42.75 0.20 20.70 -2.35 37.55 -7.10 52.65 -14.75 5.70 -2.95 5.75 -3.25 0.10 -2.05 -8.75 1.85 -16.10 2.45 -30.25 2.45 -23.90 0 -40.55 -2.85 -61.75 -10.60 -16.45 -6.05 -25.70 -10.55 -39 -19.05 -22.85 -14.55 -43.65 -37.40 -55.40 -60.80 -1.65 -3.35 -2.90 -5.15 -3.65 -5.50 -1 -0.40 -1.50 -1.50 -2.80 -6.10 -3.90 -13.60 -4.15 -28.80 -0.65 -38.85 0.55 -1.65 0.80 -3.20 0.60 -3.40 -0.75 -0.75 -12.10 -0.50 -16.10 0.35 -4.70 0.95 -11 3 -14.10 4.55 -2.80 1.40 -2.90 1.45 -2.90 0.45 0 -0.40 -0.10 -0.75 -0.25 -0.75 -1.70 0 -13.70 7.95 -16 10.60 l-1.90 2.15 0.35 -1.65 c0.60 -3.35 4.40 -10.95 7.60 -15.20 5.75 -7.75 14.30 -13.55 23.45 -16 5.60 -1.45 16.25 -1.80 23.15 -0.70 4.70 0.75 7.60 1.45 21.05 5.05 9.05 2.45 18 2.15 23.80 -0.75 7.30 -3.60 19.20 -16.80 22.60 -25 1.95 -4.80 1.25 -8.70 -2 -11.20 -0.95 -0.75 -5.25 -2.50 -9.65 -4 -9.90 -3.35 -17.95 -6.65 -24.45 -9.95 -6.55 -3.40 -11.55 -8.25 -14.65 -14.15 -3.25 -6.30 -3.80 -9.10 -3.75 -18.45 0 -7.05 0.35 -10.20 2.80 -26.50 3.95 -26 5 -35.75 3.95 -35.75 -0.25 0 -2.70 0.80 -5.40 1.80 -11.30 4.05 -23.50 11.10 -32.60 18.85 -4.65 3.95 -14.45 14.10 -15.50 16.10 -0.35 0.70 -0.85 1.25 -1.15 1.25 -0.65 0 -5.85 -10.95 -12.05 -25.50 -6.60 -15.45 -15.05 -32.25 -17.10 -33.95 -0.45 -0.40 -2 0.85 -6.10 4.85 -17.60 17.15 -30.60 39.45 -35.40 60.75 -1.55 6.80 -2.35 14.90 -2 20.20 0.30 4.75 0.25 5.15 -0.60 5.40 -1.85 0.60 -7.50 3.35 -9.95 4.90 -8 5 -14.05 10.30 -21.20 18.60 -4.90 5.65 -11.65 15.80 -9.65 14.55 0.20 -0.10 1.85 -1.20 3.65 -2.40 4.10 -2.75 10.70 -5.55 16.35 -6.95 4.95 -1.20 13.05 -1.80 14.30 -1.10 0.70 0.40 0.45 0.70 -1.65 1.80 -6.75 3.70 -22.90 18.60 -30.75 28.35 -15.40 19.20 -25.90 43.35 -28.25 65 -0.70 6.15 -1 12.50 -0.60 12.50 0.15 0 1.45 -2.30 2.90 -5.15 5.55 -10.90 12.05 -19.40 20.40 -26.65 7.90 -6.90 18.80 -12.15 29.85 -14.40 6.15 -1.25 6.75 -1 3.25 1.45 -7.75 5.50 -15.45 13.25 -22.65 22.80 -10.35 13.70 -19.05 32.65 -22.90 50 -1.95 8.80 -3.30 21.40 -3.30 31.20 0 16.25 2.75 31.60 8.25 46 3.05 7.95 3.55 9.20 3.80 9.50 0.15 0.15 0.45 -4.85 0.60 -11.10 0.25 -9.85 0.50 -12.50 1.80 -19.40 2.80 -14.70 8.35 -30.10 14.70 -40.75 3.40 -5.65 5.35 -8.40 9.65 -13.50 4.25 -5.05 6 -6.75 6.35 -6.15 0.15 0.25 -0.15 2.15 -0.65 4.25 -1.95 8.25 -2.70 16.55 -2.70 29.65 0.05 15.35 0.90 21.95 4.75 37.35 8.75 34.90 33.40 68.95 62.45 86.20 7.05 4.20 10.05 5.80 10.30 5.55 0.15 -0.15 -0.40 -1 -1.20 -1.90 -7.40 -8.65 -19.15 -27.90 -25.10 -41 -10.95 -24.20 -15.85 -49.90 -14.50 -76.05 0.80 -15 2.10 -22.70 5.65 -33.35 2.80 -8.25 3.45 -8.40 3.05 -0.70 -0.50 8.80 0.85 24.90 3.10 37.15 1.05 6.05 4.90 20.55 7 26.60 5.35 15.50 15.25 34.50 25.30 48.70 21.30 30.05 46.35 52 79 69.15 27.20 14.30 57.35 22.50 90.40 24.55 8.25 0.55 28.40 0.10 37.50 -0.75z m57 -48 c11.95 -1.45 22.50 -4.65 32.45 -9.75 5.85 -3 15.30 -9.15 20.80 -13.50 20.15 -15.95 35.65 -40.40 40.25 -63.50 0.90 -4.40 1.20 -7.50 1.20 -13.35 0.05 -4.20 0.20 -7.65 0.40 -7.65 0.65 0 5.80 10.25 7.30 14.50 0.80 2.35 1.75 5.75 2.10 7.65 0.35 1.85 0.80 3.45 1 3.60 0.20 0.15 0.65 -0.80 0.95 -2.10 2.65 -10.40 2.15 -18.65 -1.90 -31.25 -3.60 -11.20 -14 -28.95 -24.70 -42.25 -5.50 -6.90 -18.65 -20.30 -26.65 -27.20 -6.95 -6 -7.20 -5.95 -1.35 0.30 8.20 8.80 13.80 16.50 19.15 26.20 3.70 6.75 5.10 10.05 7.35 17.55 2.60 8.85 3.30 14.75 3 24.75 -0.55 15.90 -4.35 29.50 -12.50 44.60 -6.55 12.15 -12.20 19.55 -23.30 30.70 -12.60 12.65 -23.95 20.80 -39.90 28.85 -6.90 3.50 -26.35 10.50 -31.55 11.35 -4.60 0.75 -1.05 1.25 9.05 1.25 6.45 0 13.10 -0.30 16.85 -0.75z m-36.15 -14.70 c18.65 -3.45 34.50 -14.35 46.10 -31.80 3.40 -5.15 8.55 -14.65 8.55 -15.80 0 -0.40 -1.65 0.90 -3.60 2.85 -6.15 6 -11.15 9.90 -20.85 16.35 -11 7.35 -16.15 10.30 -25.10 14.40 -9.35 4.30 -27.25 10.05 -37.05 11.95 -1.60 0.30 -2.90 0.75 -2.90 0.95 0 0.45 4.70 1.30 11 2.05 5.70 0.65 17.45 0.20 23.85 -0.95z m-47.35 -28.25 c15.50 -1.95 27.45 -6.15 42 -14.80 l4.25 -2.55 -2.25 0.20 c-1.25 0.15 -5.15 0.70 -8.75 1.25 -13.30 2.05 -24.60 2.75 -42.20 2.45 -15.95 -0.25 -23.75 -0.85 -34.30 -2.65 -13.65 -2.30 -33.05 -7.85 -43 -12.20 l-5.50 -2.45 3.55 3.35 c1.95 1.85 6.15 5.25 9.40 7.55 15.85 11.35 30.85 17.25 50.30 19.80 6.60 0.90 19.70 0.90 26.50 0.05z m196.45 -89.35 c7.80 -16.25 15 -39.35 18.30 -58.95 3.30 -19.25 4.45 -39.95 3.30 -58.05 -1.35 -21.40 -5.75 -43.70 -12.65 -63.95 -11.05 -32.55 -26.95 -60.35 -50.25 -87.95 -6.40 -7.55 -24.35 -25.50 -31.65 -31.60 -27.10 -22.65 -55.10 -38.70 -86.25 -49.45 -11.70 -4 -29.55 -8.40 -40.75 -10 -17.80 -2.55 -39.60 -2.65 -58.75 -0.20 -19.40 2.45 -42.75 9.25 -58.50 17.05 -5.15 2.55 -18.20 10.25 -18.25 10.75 0 0.15 1.50 1 3.40 1.90 26.90 12.55 50.60 33.95 67.35 60.75 13.65 21.80 21.70 46.65 24.30 74.85 0.70 7.85 0.35 25.45 -0.80 40.65 -1 12.65 -0.75 30 0.45 38.85 5.30 37.90 25.15 72.10 54.65 94.25 6 4.50 9.25 6.50 17.40 10.70 11.45 5.90 21.40 9.40 33.75 12 14.80 3.10 35.25 3.15 51 0.20 4.35 -0.85 12.50 -2.75 13.05 -3.05 0.45 -0.25 -0.90 -8.75 -2.35 -14.80 -1.90 -7.85 -6.20 -16.10 -12.30 -23.45 l-1.90 -2.35 -3.15 0.70 c-9.60 2 -16.25 6.60 -24.85 17.20 -2.10 2.60 -4.45 5.70 -5.25 6.90 -0.75 1.20 -1.60 1.95 -1.80 1.75 -0.20 -0.20 -0.60 -2 -0.90 -4 -1.65 -10.80 0.60 -19.95 6.90 -28.35 1.45 -1.85 2.55 -3.60 2.45 -3.80 -0.20 -0.45 -3.30 -2.95 -13.45 -10.85 -22.05 -17.20 -33.60 -30.25 -42 -47.40 -5.85 -12 -7.15 -18.20 -7.15 -33.50 0 -9.60 0.15 -11.65 1.10 -16.25 3.40 -15.50 9.90 -27.35 21.20 -38.70 l5.90 -5.90 -1.45 -1.85 c-7.50 -9.45 -22.80 -18.50 -37.05 -21.95 -5.80 -1.40 -14.75 -2.30 -19.55 -1.95 -2.40 0.15 -3.95 0.05 -3.95 -0.20 0 -0.30 0.85 -1.80 1.95 -3.35 5.65 -8.30 14.15 -13.90 25.40 -16.70 3.75 -0.95 5.80 -1.10 13.65 -1.10 10.90 0 16.60 0.90 27.70 4.55 l6.90 2.25 4.10 -1.90 c7 -3.20 11.25 -4.25 18.55 -4.55 10.30 -0.40 17.90 1.60 25.90 6.85 14.50 9.50 23.55 26.05 25.40 46.40 0.60 6.35 0.30 12.10 -0.55 12.10 -0.25 0 -0.80 -0.70 -1.25 -1.50 -0.90 -1.70 -13.55 -14.80 -12.80 -13.20 1.20 2.50 2.10 10.50 2.40 21.20 l0.30 11.25 7.95 7.70 c8.75 8.45 14.15 14.90 19.75 23.40 6.80 10.30 13.60 25.10 17.10 37.30 2 6.90 6.70 25.70 8.25 33.10 0.65 3.30 2.50 11.85 4 19 1.50 7.15 3.65 17.85 4.75 23.75 1.10 5.90 2.65 14.25 3.50 18.50 0.80 4.25 1.65 8.75 1.80 10 0.20 1.25 0.45 2.65 0.60 3.15 0.25 0.90 0.25 0.90 0.95 -0.05 0.35 -0.50 2.20 -4.20 4.15 -8.15z m-135.15 -107.55 c-5.90 -9.05 -9.40 -16.95 -11.60 -26.30 -1.05 -4.35 -1.35 -7.05 -1.55 -14.60 -0.30 -10 0.05 -13.45 2.15 -21.75 2.05 -8.30 5.20 -14.70 10.60 -21.80 1.45 -1.90 2.40 -3.45 2.10 -3.45 -0.95 0 -9.55 8.65 -12.65 12.75 -3.75 4.95 -7.90 13.55 -9.40 19.50 -0.95 3.60 -1.15 5.85 -1.20 11.50 0 7.75 0.60 11.65 2.85 18.50 1.95 5.90 3.80 9.45 7.80 15.20 2.95 4.30 12.95 15.35 13.45 14.85 0.10 -0.10 -1.05 -2.10 -2.55 -4.40z m29.20 -108.20 c2.80 -1.70 3.90 -6 2.25 -9.20 -1.65 -3.25 -6.75 -4.55 -9.45 -2.45 -5.10 4 -2.70 12.45 3.55 12.45 1.25 0 2.85 -0.35 3.65 -0.80z"/>
  <path d="M425.25 441.10 c-1.35 -0.50 -4.60 -0.85 -10.10 -1.05 -7.85 -0.30 -8.15 -0.35 -9.50 -1.60 -4 -3.75 -13.70 -6 -18.65 -4.25 -3.75 1.30 -3.25 0.20 1.60 -3.55 12.05 -9.25 27.30 -8.70 34.55 1.25 1.50 2.05 5.35 9.15 5.35 9.85 0 0.40 -1.10 0.20 -3.25 -0.65z"/>
  <path d="M356.05 409.65 c-1.80 -4.75 -2.65 -9.50 -2.90 -17 -0.65 -16.65 3.05 -30.40 12.20 -45.55 2.55 -4.25 4.65 -8.15 4.65 -8.65 0 -1.35 0.80 -0.50 2.65 2.80 8.25 14.65 12.60 31.45 13 50.20 l0.10 5.20 -1.75 0.20 c-3.35 0.35 -9.80 2.65 -14 5 -2.90 1.65 -5.60 3.75 -8.40 6.55 -2.30 2.25 -4.25 4.10 -4.30 4.10 -0.10 0 -0.65 -1.30 -1.25 -2.85z"/>
  <path d="M438.15 397.35 c-2.30 -2.30 -5.80 -5.20 -8.10 -6.60 -2.20 -1.35 -4 -2.80 -4.05 -3.15 -0.05 -1.95 6.95 -13.35 11.80 -19.10 3.80 -4.55 10.50 -10.85 11 -10.35 0.15 0.15 -0.20 3.30 -0.75 6.95 -0.60 3.65 -1.30 8.10 -1.55 9.90 -0.30 1.80 -1.10 6.85 -1.80 11.20 -0.70 4.40 -1.40 9.50 -1.55 11.40 -0.15 1.90 -0.45 3.50 -0.60 3.65 -0.20 0.10 -2.15 -1.65 -4.40 -3.90z"/>
 </g>
 <g fill="#bcc4c9">
  <path d="M437.25 546.50 c-1.70 -0.65 -7.95 -5.55 -12.80 -10 -4.05 -3.70 -13.95 -14.85 -13.95 -15.70 0 -0.20 -0.40 -0.80 -0.90 -1.35 -0.55 -0.50 -1.25 -1.60 -1.65 -2.35 -0.40 -0.75 -1.10 -1.80 -1.55 -2.30 -0.85 -0.90 -0.95 -1.25 -0.85 -2.10 0 -0.20 -0.15 -0.50 -0.40 -0.65 -0.85 -0.60 -3.65 -6.05 -4.10 -8 l-0.45 -1.95 2.85 -1.25 c3.75 -1.65 8.50 -3.15 13.05 -4.15 3.90 -0.80 15.05 -1.10 18.80 -0.50 l2.05 0.35 -1.70 4.50 c-4.35 11.55 -4 25.60 1 40.95 0.90 2.75 1.65 5 1.60 4.95 0 0 -0.45 -0.20 -1 -0.45z"/>
 </g>
</svg>